<?xml version="1.0" encoding="iso-8859-1"?>
<!-- Generator: Adobe Illustrator 19.0.0, SVG Export Plug-In . SVG Version: 6.00 Build 0)  -->
<svg version="1.1" id="Layer_1" xmlns="http://www.w3.org/2000/svg" xmlns:xlink="http://www.w3.org/1999/xlink" x="0px" y="0px"
	 viewBox="0 0 512.001 512.001" style="enable-background:new 0 0 512.001 512.001;" xml:space="preserve">

<path style="fill:#aa494a;" d="M292.795,49.633c0,7.395-5.992,13.387-13.387,13.387h-46.824c-7.395,0-13.387-5.992-13.387-13.387
	V28.525c0-7.395,5.992-13.387,13.387-13.387h46.828c7.395,0,13.387,5.992,13.387,13.387v21.108H292.795z"/>




<g style="opacity:0.4;">
	<circle style="fill:#FBF5E2;" cx="256.005" cy="271.984" r="182.951"/>
</g>
<circle style="fill:#FBF5E2;" cx="256.005" cy="271.984" r="165.298"/>
<path style="fill:#407190;" d="M328.825,332.385c5.478,5.788,5.533,14.628,0.128,19.749l0,0c-5.41,5.117-14.237,4.573-19.715-1.211
	l-53.296-56.925c-5.478-5.788-5.533-14.628-0.127-19.749l0,0c5.41-5.117,14.237-4.573,19.715,1.211L328.825,332.385z"/>
<g style="opacity:0.4;">
	<path style="fill:#407190;" d="M334.213,148.367c2.036-3.655,0.714-8.27-2.945-10.306l0,0c-3.659-2.036-8.274-0.718-10.306,2.941
		l-67.698,121.53c-2.036,3.659-0.714,8.274,2.945,10.31l0,0c3.659,2.036,8.274,0.718,10.306-2.941L334.213,148.367z"/>
</g>
<path style="fill:#aa494a;" d="M116.036,215.386c-0.909,2.184,0.123,4.692,2.303,5.593l133.374,55.519
	c2.18,0.909,4.687-0.123,5.593-2.303l0,0c0.905-2.184-0.123-4.692-2.308-5.593l-133.365-55.519
	C119.449,212.173,116.945,213.206,116.036,215.386L116.036,215.386z"/>
<circle style="fill:#589BC7;" cx="256.005" cy="271.984" r="36.284"/>
<g>
	<circle style="fill:#aa494a;" cx="256.005" cy="131.598" r="9.456"/>
	<circle style="fill:#aa494a;" cx="256.005" cy="412.353" r="9.456"/>
	<circle style="fill:#aa494a;" cx="115.594" cy="271.984" r="9.456"/>
	<circle style="fill:#aa494a;" cx="396.374" cy="271.984" r="9.456"/>
</g>
<g>
</g>
<g>
</g>
<g>
</g>
<g>
</g>
<g>
</g>
<g>
</g>
<g>
</g>
<g>
</g>
<g>
</g>
<g>
</g>
<g>
</g>
<g>
</g>
<g>
</g>
<g>
</g>
<g>
</g>
</svg>
