<svg width="264" height="106" viewBox="0 0 264 106" fill="none" xmlns="http://www.w3.org/2000/svg">
<path d="M136.439 53.888H118.802C118.392 53.888 118.187 53.6829 118.187 53.2727V20.5286C118.187 20.1184 118.392 19.9133 118.802 19.9133H136.439V15.1965H121.195C116.82 15.1965 114.154 16.5409 113.197 19.2298C112.878 20.2324 112.718 21.4173 112.718 22.7844V51.0169C112.718 54.9817 114.313 57.3743 117.503 58.1946C118.552 58.468 119.782 58.6048 121.195 58.6048H136.439V53.888ZM165.56 19.5032C165.925 19.5943 166.13 19.7994 166.175 20.1184V53.6829C166.084 54.0475 165.879 54.2525 165.56 54.2981H148.197C147.832 54.207 147.627 54.0019 147.582 53.6829V20.1184C147.673 19.7538 147.878 19.5488 148.197 19.5032H165.56ZM142.181 51.427C142.181 55.4374 143.753 57.8528 146.898 58.6731C147.946 58.9465 149.199 59.0833 150.658 59.0833H163.167C167.588 59.0833 170.277 57.6477 171.234 54.7766C171.507 53.8196 171.644 52.7031 171.644 51.427V22.3059C171.644 18.3411 170.049 15.9485 166.859 15.1282C165.811 14.8548 164.58 14.718 163.167 14.718H150.658C146.192 14.718 143.503 16.1764 142.591 19.093C142.318 20.0501 142.181 21.121 142.181 22.3059V51.427ZM199.74 52.1106L209.789 15.1965H204.867L194.613 53.4094C194.476 53.774 194.271 53.9791 193.998 54.0247H190.921L181.283 15.1965H176.087L186.957 58.6048L192.425 58.6731C195.023 58.7187 196.755 58.263 197.621 57.3059C198.304 56.44 199.011 54.7083 199.74 52.1106ZM220.589 58.6048V15.1965H215.394V58.6048H220.589ZM252.923 19.5032C253.47 19.5032 253.744 19.7766 253.744 20.3235V53.4778C253.653 53.9791 253.379 54.2525 252.923 54.2981H236.654V19.5032H252.923ZM231.39 58.6731L249.916 58.9465C255.658 58.9921 258.734 56.5995 259.144 51.7688C259.19 51.3587 259.212 50.9485 259.212 50.5383V23.263C259.212 18.4322 257.116 15.6979 252.923 15.0598C252.057 14.9231 251.123 14.8548 250.121 14.8548L231.39 15.1965V58.6731Z" fill="#D36767"/>
<path d="M116.786 80.0852C116.458 80.0305 116.28 79.8665 116.252 79.593V71.8001C116.307 71.4993 116.485 71.3352 116.786 71.3079H128.311V68.5598L118.59 68.3958C115.446 68.3684 113.627 69.6126 113.135 72.1282C113.053 72.5657 113.012 73.0169 113.012 73.4817V78.1985C113.012 80.7688 114.133 82.2864 116.375 82.7512C116.977 82.888 117.661 82.9563 118.426 82.9563H125.235C125.563 83.011 125.741 83.1751 125.768 83.4485V91.3645C125.713 91.6653 125.536 91.8294 125.235 91.8567H113.34V94.6048L123.594 94.7688C127.176 94.7688 128.981 93.1008 129.008 89.7649V84.9251C128.954 81.7258 127.094 80.1126 123.43 80.0852H116.786ZM142.502 94.8919C144.444 94.8645 145.702 94.1946 146.276 92.8821C146.877 94.1946 148.135 94.8645 150.049 94.8919H154.684C156.899 94.8919 158.28 94.2219 158.827 92.8821C159.045 92.3079 159.155 91.5833 159.155 90.7083L159.114 68.5598H155.915V91.6516C155.915 91.8977 155.792 92.0208 155.545 92.0208H148.204C147.985 91.9661 147.862 91.843 147.834 91.6516V68.5598H144.717V91.6516C144.663 91.8704 144.54 91.9934 144.348 92.0208H137.006C136.788 91.9661 136.665 91.843 136.637 91.6516V68.5598H133.438V90.7903C133.438 92.8137 134.122 94.0715 135.489 94.5637C136.145 94.7825 136.979 94.8919 137.991 94.8919H142.502ZM179.375 94.6048V91.8567H168.055V82.7102H178.473V80.0032H168.055V71.3079H179.17V68.5598H164.897V94.6048H179.375ZM198.202 94.6048V91.8567H186.881V82.7102H197.299V80.0032H186.881V71.3079H197.997V68.5598H183.723V94.6048H198.202ZM205.79 94.6048L205.749 84.4329H213.5C217.11 84.3782 218.928 82.6965 218.956 79.388V73.3997C218.901 70.0364 217.083 68.3684 213.5 68.3958L202.631 68.5598V94.6048H205.79ZM215.182 71.1438C215.483 71.1985 215.647 71.3762 215.674 71.677V81.1926C215.62 81.5208 215.456 81.6985 215.182 81.7258H205.749V71.1438H215.182ZM236.797 94.6048V91.8567H225.477V82.7102H235.895V80.0032H225.477V71.3079H236.592V68.5598H222.319V94.6048H236.797ZM244.385 94.6048L244.344 83.8997H250.989C251.317 83.927 251.536 84.0774 251.645 84.3508L255.172 94.6048H258.372L255.377 86.0735C254.967 84.9251 254.502 84.1184 253.983 83.6536C256.362 83.0794 257.565 81.4661 257.592 78.8137V73.3997C257.538 70.0364 255.719 68.3684 252.137 68.3958L241.227 68.5598V94.6048H244.385ZM253.819 71.1438C254.12 71.1985 254.284 71.3762 254.311 71.677V80.7005C254.256 81.0286 254.092 81.2063 253.819 81.2337H244.344V71.1438H253.819Z" fill="#6FA7C8"/>
<path d="M51.1533 87.5735C69.6376 87.5735 84.6221 72.589 84.6221 54.1048C84.6221 35.6205 69.6376 20.636 51.1533 20.636C32.669 20.636 17.6846 35.6205 17.6846 54.1048C17.6846 72.589 32.669 87.5735 51.1533 87.5735Z" fill="#AA494A"/>
<path d="M51.1533 84.386C67.8772 84.386 81.4346 70.8286 81.4346 54.1048C81.4346 37.3809 67.8772 23.8235 51.1533 23.8235C34.4294 23.8235 20.8721 37.3809 20.8721 54.1048C20.8721 70.8286 34.4294 84.386 51.1533 84.386Z" fill="#D36767"/>
<path d="M52.7471 14.261H49.5596V27.011H52.7471V14.261Z" fill="#3A4249"/>
<path d="M36.4043 17.0576L33.4922 18.3539L38.6783 30.0038L41.5904 28.7074L36.4043 17.0576Z" fill="#3A4249"/>
<path d="M29.0233 20.9323L26.4446 22.8063L33.9412 33.1223L36.5199 31.2484L29.0233 20.9323Z" fill="#3A4249"/>
<path d="M17.4432 32.8035L15.8495 35.5639L26.891 41.9389L28.4847 39.1785L17.4432 32.8035Z" fill="#3A4249"/>
<path d="M11.6928 48.3565L11.3597 51.5265L24.0412 52.859L24.3743 49.689L11.6928 48.3565Z" fill="#3A4249"/>
<path d="M24.0418 55.35L11.3604 56.6825L11.6934 59.8525L24.3749 58.5199L24.0418 55.35Z" fill="#3A4249"/>
<path d="M26.8918 66.2745L15.849 72.6483L17.4424 75.4089L28.4852 69.0352L26.8918 66.2745Z" fill="#3A4249"/>
<path d="M33.9386 75.084L26.4432 85.4L29.0219 87.2736L36.5173 76.9576L33.9386 75.084Z" fill="#3A4249"/>
<path d="M38.6726 78.2079L33.4866 89.8565L36.3984 91.1528L41.5844 79.5043L38.6726 78.2079Z" fill="#3A4249"/>
<path d="M52.7471 81.1985H49.5596V93.9485H52.7471V81.1985Z" fill="#3A4249"/>
<path d="M63.6306 78.2108L60.7185 79.5072L65.9046 91.157L68.8167 89.8607L63.6306 78.2108Z" fill="#3A4249"/>
<path d="M68.3735 75.0856L65.7948 76.9595L73.2915 87.2756L75.8701 85.4017L68.3735 75.0856Z" fill="#3A4249"/>
<path d="M75.4131 66.2733L73.8193 69.0337L84.8608 75.4087L86.4546 72.6483L75.4131 66.2733Z" fill="#3A4249"/>
<path d="M78.2646 55.3551L77.9315 58.5251L90.613 59.8576L90.9461 56.6877L78.2646 55.3551Z" fill="#3A4249"/>
<path d="M90.6124 48.3524L77.9309 49.685L78.264 52.8549L90.9455 51.5224L90.6124 48.3524Z" fill="#3A4249"/>
<path d="M84.8652 32.8055L73.8224 39.1792L75.4158 41.9399L86.4586 35.5662L84.8652 32.8055Z" fill="#3A4249"/>
<path d="M73.2822 20.9315L65.7869 31.2475L68.3655 33.1211L75.8609 22.8051L73.2822 20.9315Z" fill="#3A4249"/>
<path d="M65.9006 17.0591L60.7145 28.7076L63.6263 30.004L68.8123 18.3554L65.9006 17.0591Z" fill="#3A4249"/>
<path d="M70.2784 54.1048C69.6696 54.1048 69.0878 53.7541 68.8233 53.1628C68.0694 51.4798 69.2345 49.9483 70.0855 48.8294C70.4122 48.4007 71.0896 47.5066 71.0673 47.2118C70.8505 47.1576 69.8241 47.4572 69.2775 47.615C67.9515 47.9975 66.1378 48.5171 64.9297 47.2006C63.7089 46.0244 64.2667 44.2745 64.7162 42.8656C64.8564 42.4289 65.0955 41.6799 65.1242 41.2703C64.8214 41.4472 64.1743 41.9556 63.8014 42.2472C62.6475 43.1525 61.2099 44.2761 59.6241 43.5015C58.0623 42.8417 57.9969 41.0089 57.9459 39.5347C57.9316 39.1076 57.9061 38.3936 57.8136 37.9856C57.6033 38.282 57.208 38.9243 56.9737 39.3052C56.204 40.5579 55.2493 42.1229 53.485 41.9221C51.7988 41.8281 51.1199 40.1276 50.5732 38.7601C50.4139 38.3601 50.1445 37.6891 49.9166 37.3337C49.8258 37.6796 49.6744 38.4047 49.5851 38.835C49.2839 40.2774 48.9094 42.0735 47.1722 42.4736C45.5609 42.9501 44.3465 41.5779 43.3663 40.4814C43.0699 40.1499 42.5694 39.5857 42.2284 39.3355C42.2523 39.6893 42.3575 40.4431 42.4196 40.8862C42.6236 42.3477 42.8802 44.1693 41.3869 45.1511C40.0385 46.1583 38.4225 45.32 37.1252 44.649C36.6949 44.4259 35.9442 44.037 35.5521 43.9621C35.627 44.3064 36.0319 45.0841 36.263 45.524C36.9483 46.8357 37.7993 48.4693 36.7618 49.9483C35.8725 51.4018 33.9998 51.2743 32.634 51.1802C31.9885 51.1356 30.7836 51.0543 30.6609 51.3284C30.3007 52.1317 29.3604 52.4903 28.5556 52.1333C27.7523 51.7747 27.3921 50.8328 27.7507 50.0279C28.7803 47.7202 31.3271 47.8939 32.8523 47.9991C33.1822 48.0214 33.6253 48.0517 33.9472 48.0437C33.815 47.7202 33.5918 47.2899 33.4388 46.9966C32.7009 45.5814 31.5853 43.4442 33.195 41.691C34.9911 39.9475 37.2463 41.1173 38.593 41.8153C38.8241 41.9349 39.1142 42.0847 39.374 42.2058C39.3469 41.9158 39.3022 41.5858 39.2656 41.3261C39.044 39.7403 38.7078 37.3433 40.8243 36.3042C43.0651 35.3463 44.6811 37.1584 45.749 38.3569C45.9083 38.5354 46.1075 38.7585 46.2956 38.9546C46.3594 38.6964 46.4199 38.4095 46.4677 38.1784C46.7753 36.7074 47.2901 34.2434 49.6265 33.9868C52.0315 33.8354 52.9431 36.0858 53.536 37.5728C53.6221 37.7895 53.7305 38.0589 53.8372 38.3011C53.9855 38.0796 54.1369 37.831 54.2612 37.6302C55.1011 36.2659 56.3761 34.2084 58.652 34.7327C60.9932 35.4005 61.0808 37.917 61.1334 39.4199C61.1414 39.6638 61.1525 39.9682 61.1733 40.2423C61.398 40.0797 61.6402 39.8901 61.8347 39.7371C63.1033 38.7426 65.0206 37.2397 67.0032 38.545C68.9763 40.0032 68.2415 42.3062 67.7555 43.8314C67.663 44.1167 67.5451 44.4881 67.4686 44.7957C67.7666 44.7287 68.122 44.6267 68.3977 44.547C69.8592 44.1263 72.3088 43.4202 73.7193 45.4395C75.0405 47.5736 73.587 49.4877 72.6244 50.7531C72.3471 51.1181 71.896 51.7109 71.7908 51.9994C72.0506 52.7676 71.6872 53.6234 70.9318 53.9613C70.7182 54.0601 70.4967 54.1048 70.2784 54.1048Z" fill="#F2DAAE"/>
<path d="M51.1533 15.8548C53.7939 15.8548 55.9346 13.7141 55.9346 11.0735C55.9346 8.43289 53.7939 6.29225 51.1533 6.29225C48.5127 6.29225 46.3721 8.43289 46.3721 11.0735C46.3721 13.7141 48.5127 15.8548 51.1533 15.8548Z" fill="#6FA7C8"/>
<path d="M13.8866 37.3704C16.5272 37.3704 18.6678 35.2297 18.6678 32.5891C18.6678 29.9485 16.5272 27.8079 13.8866 27.8079C11.246 27.8079 9.10535 29.9485 9.10535 32.5891C9.10535 35.2297 11.246 37.3704 13.8866 37.3704Z" fill="#6FA7C8"/>
<path d="M11.4961 71.4798C9.21063 72.7994 8.42651 75.7256 9.74613 78.011C11.0658 80.2964 13.9919 81.0806 16.2773 79.7609C18.5628 78.4413 19.3469 75.5152 18.0273 73.2297C16.7076 70.9443 13.7815 70.1602 11.4961 71.4798Z" fill="#6FA7C8"/>
<path d="M51.1533 101.917C53.7939 101.917 55.9346 99.7766 55.9346 97.136C55.9346 94.4954 53.7939 92.3548 51.1533 92.3548C48.5127 92.3548 46.3721 94.4954 46.3721 97.136C46.3721 99.7766 48.5127 101.917 51.1533 101.917Z" fill="#6FA7C8"/>
<path d="M90.8106 71.4798C88.5252 70.1602 85.5991 70.9443 84.2795 73.2297C82.9598 75.5152 83.744 78.4413 86.0294 79.7609C88.3148 81.0806 91.241 80.2964 92.5606 78.011C93.8802 75.7256 93.0961 72.7994 90.8106 71.4798Z" fill="#6FA7C8"/>
<path d="M88.42 37.3704C91.0607 37.3704 93.2013 35.2297 93.2013 32.5891C93.2013 29.9485 91.0607 27.8079 88.42 27.8079C85.7794 27.8079 83.6388 29.9485 83.6388 32.5891C83.6388 35.2297 85.7794 37.3704 88.42 37.3704Z" fill="#6FA7C8"/>
</svg>
